REM DIRINDEX 1\5,1\2\6,1\2\7,1\3\8,1\3\9,1\4\10,1\4\11,1\4\12
REM DIRNAME cjc026,folder01,folder02,folder03,folder04,folder05,folder06,folder07,folder08,folder09,folder10,folder11
TITLE ""
FILE "EJE_DB3000_5th_3B_10.mp3" MP3
  TRACK 01 AUDIO
    TITLE "0:"
    INDEX 01 00:00:00
  TRACK 02 AUDIO
    TITLE "10:cjc026_08646"
    INDEX 01 00:00:08
  TRACK 03 AUDIO
    TITLE "0:"
    INDEX 01 00:01:11
  TRACK 04 AUDIO
    TITLE "11:cjc026_08647"
    INDEX 01 00:01:49
  TRACK 05 AUDIO
    TITLE "0:"
    INDEX 01 00:03:04
  TRACK 06 AUDIO
    TITLE "12:cjc026_08648"
    INDEX 01 00:03:39
  TRACK 07 AUDIO
    TITLE "0:"
    INDEX 01 00:04:42
  TRACK 08 AUDIO
    TITLE "10:cjc026_08649"
    INDEX 01 00:05:05
  TRACK 09 AUDIO
    TITLE "0:"
    INDEX 01 00:06:11
  TRACK 10 AUDIO
    TITLE "11:cjc026_08650"
    INDEX 01 00:06:46
  TRACK 11 AUDIO
    TITLE "0:"
    INDEX 01 00:07:58
  TRACK 12 AUDIO
    TITLE "12:cjc026_08651"
    INDEX 01 00:08:20
  TRACK 13 AUDIO
    TITLE "0:"
    INDEX 01 00:09:27
  TRACK 14 AUDIO
    TITLE "10:cjc026_08652"
    INDEX 01 00:09:62
  TRACK 15 AUDIO
    TITLE "0:"
    INDEX 01 00:11:03
  TRACK 16 AUDIO
    TITLE "11:cjc026_08653"
    INDEX 01 00:11:39
  TRACK 17 AUDIO
    TITLE "0:"
    INDEX 01 00:12:50
  TRACK 18 AUDIO
    TITLE "12:cjc026_08654"
    INDEX 01 00:13:10
  TRACK 19 AUDIO
    TITLE "0:"
    INDEX 01 00:14:30
  TRACK 20 AUDIO
    TITLE "10:cjc026_08655"
    INDEX 01 00:14:65
  TRACK 21 AUDIO
    TITLE "0:"
    INDEX 01 00:16:04
  TRACK 22 AUDIO
    TITLE "11:cjc026_08656"
    INDEX 01 00:16:41
  TRACK 23 AUDIO
    TITLE "0:"
    INDEX 01 00:18:02
  TRACK 24 AUDIO
    TITLE "12:cjc026_08657"
    INDEX 01 00:18:37
  TRACK 25 AUDIO
    TITLE "0:"
    INDEX 01 00:19:54
  TRACK 26 AUDIO
    TITLE "10:cjc026_08658"
    INDEX 01 00:20:17
  TRACK 27 AUDIO
    TITLE "0:"
    INDEX 01 00:21:34
  TRACK 28 AUDIO
    TITLE "11:cjc026_08659"
    INDEX 01 00:21:74
  TRACK 29 AUDIO
    TITLE "0:"
    INDEX 01 00:23:08
  TRACK 30 AUDIO
    TITLE "12:cjc026_08660"
    INDEX 01 00:23:43
  TRACK 31 AUDIO
    TITLE "0:"
    INDEX 01 00:24:60
  TRACK 32 AUDIO
    TITLE "10:cjc026_08661"
    INDEX 01 00:25:25
  TRACK 33 AUDIO
    TITLE "0:"
    INDEX 01 00:26:45
  TRACK 34 AUDIO
    TITLE "11:cjc026_08662"
    INDEX 01 00:27:05
  TRACK 35 AUDIO
    TITLE "0:"
    INDEX 01 00:28:33
  TRACK 36 AUDIO
    TITLE "12:cjc026_08663"
    INDEX 01 00:28:70
  TRACK 37 AUDIO
    TITLE "0:"
    INDEX 01 00:30:15
  TRACK 38 AUDIO
    TITLE "10:cjc026_08664"
    INDEX 01 00:30:50
  TRACK 39 AUDIO
    TITLE "0:"
    INDEX 01 00:32:00
  TRACK 40 AUDIO
    TITLE "11:cjc026_08665"
    INDEX 01 00:32:35
  TRACK 41 AUDIO
    TITLE "0:"
    INDEX 01 00:33:65
  TRACK 42 AUDIO
    TITLE "12:cjc026_08666"
    INDEX 01 00:34:28
  TRACK 43 AUDIO
    TITLE "0:"
    INDEX 01 00:35:53
  TRACK 44 AUDIO
    TITLE "10:cjc026_08667"
    INDEX 01 00:36:13
  TRACK 45 AUDIO
    TITLE "0:"
    INDEX 01 00:37:27
  TRACK 46 AUDIO
    TITLE "11:cjc026_08668"
    INDEX 01 00:37:62
  TRACK 47 AUDIO
    TITLE "0:"
    INDEX 01 00:39:07
  TRACK 48 AUDIO
    TITLE "12:cjc026_08669"
    INDEX 01 00:39:42
  TRACK 49 AUDIO
    TITLE "0:"
    INDEX 01 00:40:56
  TRACK 50 AUDIO
    TITLE "10:cjc026_08670"
    INDEX 01 00:41:16
  TRACK 51 AUDIO
    TITLE "0:"
    INDEX 01 00:42:25
  TRACK 52 AUDIO
    TITLE "11:cjc026_08671"
    INDEX 01 00:42:63
  TRACK 53 AUDIO
    TITLE "0:"
    INDEX 01 00:44:21
  TRACK 54 AUDIO
    TITLE "12:cjc026_08672"
    INDEX 01 00:44:58
  TRACK 55 AUDIO
    TITLE "0:"
    INDEX 01 00:45:67
  TRACK 56 AUDIO
    TITLE "10:cjc026_08673"
    INDEX 01 00:46:24
  TRACK 57 AUDIO
    TITLE "0:"
    INDEX 01 00:47:60
  TRACK 58 AUDIO
    TITLE "11:cjc026_08674"
    INDEX 01 00:48:23
  TRACK 59 AUDIO
    TITLE "0:"
    INDEX 01 00:49:53
  TRACK 60 AUDIO
    TITLE "12:cjc026_08675"
    INDEX 01 00:50:16
  TRACK 61 AUDIO
    TITLE "0:"
    INDEX 01 00:51:49
  TRACK 62 AUDIO
    TITLE "10:cjc026_08676"
    INDEX 01 00:52:12
  TRACK 63 AUDIO
    TITLE "0:"
    INDEX 01 00:53:31
  TRACK 64 AUDIO
    TITLE "11:cjc026_08677"
    INDEX 01 00:53:66
  TRACK 65 AUDIO
    TITLE "0:"
    INDEX 01 00:55:06
  TRACK 66 AUDIO
    TITLE "12:cjc026_08678"
    INDEX 01 00:55:43
  TRACK 67 AUDIO
    TITLE "0:"
    INDEX 01 00:56:63
  TRACK 68 AUDIO
    TITLE "10:cjc026_08679"
    INDEX 01 00:57:23
  TRACK 69 AUDIO
    TITLE "0:"
    INDEX 01 00:58:42
  TRACK 70 AUDIO
    TITLE "11:cjc026_08680"
    INDEX 01 00:59:05
  TRACK 71 AUDIO
    TITLE "0:"
    INDEX 01 01:00:27
  TRACK 72 AUDIO
    TITLE "12:cjc026_08681"
    INDEX 01 01:00:65
  TRACK 73 AUDIO
    TITLE "0:"
    INDEX 01 01:02:10
